{"title":"Ek Villain 2014 DVDSCR-Rip Hindi X264 MP3 {VikkyMaxx}[SilverRG]","uid":10443132,"size":742195015,"categoryP":"video","categoryS":"movies","magnet":"?xt=urn:btih:fc4d15d3d5c57a8411dc5b59d69ed641867bfba5&amp;dn=Ek+Villain+2014+DVDSCR-Rip+Hindi+X264+MP3+%7BVikkyMaxx%7D%5BSilverRG%5D&amp;tr=udp%3A%2F%2Ftracker.openbittorrent.com%3A80&amp;tr=udp%3A%2F%2Fopen.demonii.com%3A1337&amp;tr=udp%3A%2F%2Ftracker.coppersurfer.tk%3A6969&amp;tr=udp%3A%2F%2Fexodus.desync.com%3A6969","seeders":1,"leechers":0,"uploader":"shailendramaxx","files":23,"time":1403922152,"description":"VikkyMaxx SilverRG Presents:-\n\n\nGeneral:-\n \nComplete name :Ek Villain (2014) DVDSCR-Rip Hindi X264 MP3{VikkyMaxx[SilverRG]\nFormat : Matroska \nFormat version : Version 4 / Version 2 \nFile size : 700 MiB \nDuration : 2h 8mn \nOverall bit rate : 762 Kbps \nEncoded date : UTC 2014-06-27 12:23:14 \nWriting application : mkvmerge v6.5.0 ('Isn't she lovely') built on Oct 20 2013 12:50:05 \nWriting library : libebml v1.3.0 + libmatroska v1.4.1 \n\nVideo:-\n \nID : 1 \nFormat : AVC \nFormat/Info : Advanced Video Codec \nFormat profile : &lt;a class=&quot;__cf_email__&quot; href=&quot;/cdn-cgi/l/email-protection&quot; data-cfemail=&quot;4800212f2008047b6678&quot;&gt;[email&amp;#160;protected]&lt;/a&gt;&lt;script cf-hash='f9e31' type=&quot;text/javascript&quot;&gt;\n/* &lt;![CDATA[ */!function(){try{var t=&quot;currentScript&quot;in document?document.currentScript:function(){for(var t=document.getElementsByTagName(&quot;script&quot;),e=t.length;e--;)if(t[e].getAttribute(&quot;cf-hash&quot;))return t[e]}();if(t&amp;&amp;t.previousSibling){var e,r,n,i,c=t.previousSibling,a=c.getAttribute(&quot;data-cfemail&quot;);if(a){for(e=&quot;&quot;,r=parseInt(a.substr(0,2),16),n=2;a.length-n;n+=2)i=parseInt(a.substr(n,2),16)^r,e+=String.fromCharCode(i);e=document.createTextNode(e),c.parentNode.replaceChild(e,c)}}}catch(u){}}();/* ]]&gt; */&lt;/script&gt; \nFormat settings, CABAC : Yes \nFormat settings, ReFrames : 4 frames \nCodec ID : V_MPEG4/ISO/AVC \nDuration : 2h 8mn \nBit rate : 680 Kbps \nWidth : 640 pixels \nHeight : 272 pixels \nDisplay aspect ratio : 2.35:1 \nFrame rate mode : Constant \nFrame rate : 29.970 fps \nColor space : YUV \nChroma subsampling : 4:2:0 \nBit depth : 8 bits \nScan type : Progressive \nBits/(Pixel*Frame) : 0.130 \nStream size : 612 MiB (88%) \nWriting library : x264 core 138 r2358 9e941d1 \nLanguage : Hindi \nDefault : Yes \nForced : No \n\nAudio \nID : 2 \nFormat : MPEG Audio \nFormat version : Version 1 \nFormat profile : Layer 3 \nMode : Joint stereo \nCodec ID : A_MPEG/L3 \nCodec ID/Hint : MP3 \nDuration : 2h 8mn \nBit rate mode : Constant \nBit rate : 80.0 Kbps \nChannel(s) : 2 channels \nSampling rate : 32.0 KHz \nCompression mode : Lossy \nStream size : 73.5 MiB (10%) \nWriting library : LAME3.99r \nEncoding settings : -m j -V 4 -q 2 -lowpass 13.5 -b 80 \nLanguage : Hindi \nDefault : Yes \nForced : No \n\n\n\nSCREENS:-\n\n &lt;a href=&quot;\nhttp://i.imgur.com/t3DkVqh.jpg&quot; rel=&quot;nofollow&quot; target=&quot;_NEW&quot;&gt;\nhttp://i.imgur.com/t3DkVqh.jpg&lt;/a&gt;\n &lt;a href=&quot;\nhttp://i.imgur.com/0UGy8Vo.jpg&quot; rel=&quot;nofollow&quot; target=&quot;_NEW&quot;&gt;\nhttp://i.imgur.com/0UGy8Vo.jpg&lt;/a&gt;\n &lt;a href=&quot;\nhttp://i.imgur.com/korTuAt.jpg&quot; rel=&quot;nofollow&quot; target=&quot;_NEW&quot;&gt;\nhttp://i.imgur.com/korTuAt.jpg&lt;/a&gt;\n &lt;a href=&quot;\nhttp://i.imgur.com/MbKV85C.jpg&quot; rel=&quot;nofollow&quot; target=&quot;_NEW&quot;&gt;\nhttp://i.imgur.com/MbKV85C.jpg&lt;/a&gt;\n &lt;a href=&quot;\nhttp://i.imgur.com/XrLhHWb.jpg&quot; rel=&quot;nofollow&quot; target=&quot;_NEW&quot;&gt;\nhttp://i.imgur.com/XrLhHWb.jpg&lt;/a&gt;\n &lt;a href=&quot;\nhttp://i.imgur.com/KS2dtpP.jpg&quot; rel=&quot;nofollow&quot; target=&quot;_NEW&quot;&gt;\nhttp://i.imgur.com/KS2dtpP.jpg&lt;/a&gt;\n &lt;a href=&quot;\nhttp://i.imgur.com/qeqk3NI.jpg&quot; rel=&quot;nofollow&quot; target=&quot;_NEW&quot;&gt;\nhttp://i.imgur.com/qeqk3NI.jpg&lt;/a&gt;\n &lt;a href=&quot;\nhttp://i.imgur.com/1FAOMuG.jpg&quot; rel=&quot;nofollow&quot; target=&quot;_NEW&quot;&gt;\nhttp://i.imgur.com/1FAOMuG.jpg&lt;/a&gt;\n &lt;a href=&quot;\nhttp://i.imgur.com/HG9vXmC.jpg&quot; rel=&quot;nofollow&quot; target=&quot;_NEW&quot;&gt;\nhttp://i.imgur.com/HG9vXmC.jpg&lt;/a&gt;\n &lt;a href=&quot;\nhttp://i.imgur.com/N5MLBQK.jpg&quot; rel=&quot;nofollow&quot; target=&quot;_NEW&quot;&gt;\nhttp://i.imgur.com/N5MLBQK.jpg&lt;/a&gt;\n &lt;a href=&quot;\nhttp://i.imgur.com/If1VEaY.jpg&quot; rel=&quot;nofollow&quot; target=&quot;_NEW&quot;&gt;\nhttp://i.imgur.com/If1VEaY.jpg&lt;/a&gt;\n &lt;a href=&quot;\nhttp://i.imgur.com/BhelPet.jpg&quot; rel=&quot;nofollow&quot; target=&quot;_NEW&quot;&gt;\nhttp://i.imgur.com/BhelPet.jpg&lt;/a&gt;\n\n\n\nSAMPLE AND SCREENSHOTS INCLUDED\n\n    \n             \n             ********** PLEASE SEED AS LONG AS YOU CAN AFTER DOWNLOAD **********\n       \n                    ***** THANK YOU REGARDS - VIKKYMAXX (SilverRG) *****\n                                        \t\t","torrent":{"xt":"urn:btih:fc4d15d3d5c57a8411dc5b59d69ed641867bfba5","amp;dn":"Ek+Villain+2014+DVDSCR-Rip+Hindi+X264+MP3+%7BVikkyMaxx%7D%5BSilverRG%5D","amp;tr":["udp%3A%2F%2Ftracker.openbittorrent.com%3A80","udp%3A%2F%2Fopen.demonii.com%3A1337","udp%3A%2F%2Ftracker.coppersurfer.tk%3A6969","udp%3A%2F%2Fexodus.desync.com%3A6969"],"infoHash":"fc4d15d3d5c57a8411dc5b59d69ed641867bfba5","infoHashBuffer":{"type":"Buffer","data":[252,77,21,211,213,197,122,132,17,220,91,89,214,158,214,65,134,123,251,165]},"announce":[],"urlList":[]}}